# xmcd CD database file
#
# Track frame offsets:
#	150
#	14675
#	25665
#	44062
#	62540
#	78037
#	95017
#	115782
#	129045
#	146200
#	163897
#
# Disc length: 2331 seconds
#
# Revision: 0
# Processed by: cddbd v1.5.2PL0 Copyright (c) Steve Scherf et al.
# Submitted via: CDex 1.70beta2
#
DISCID=8e09190b
DTITLE=Marc Laurens - Paris - New York
DYEAR=2000
DGENRE=Jazz
TTITLE0=Paris - New York
TTITLE1=My little girl
TTITLE2=D'où
TTITLE3=Regarde dans le ciel
TTITLE4=It's impossible
TTITLE5=Tout en silences
TTITLE6=Fever
TTITLE7=Une heure entre deux
TTITLE8=La belle vie
TTITLE9=Tête à tête
TTITLE10=You don't know me
EXTD=YEAR: 2000
EXTT0=
EXTT1=
EXTT2=
EXTT3=
EXTT4=
EXTT5=
EXTT6=
EXTT7=
EXTT8=
EXTT9=
EXTT10=
PLAYORDER=
